<svg xmlns="http://www.w3.org/2000/svg" width="55.544" height="44.483"><path fill="#92d2f8" stroke="#fff" d="m45.235 11.921.076.174.182.055a13.442 13.442 0 0 1-.456 25.862 2.365 2.365 0 0 1-1.179-4.58h.007a8.722 8.722 0 0 0-.7-16.978h-.007a2.36 2.36 0 0 1-1.839-1.586 14.263 14.263 0 0 0-27.757 4.59 2.36 2.36 0 0 1-2.36 2.36 5.951 5.951 0 0 0 0 11.9 2.36 2.36 0 1 1 0 4.72 10.671 10.671 0 0 1-2.508-21.049l.275-.066.036-.28a18.983 18.983 0 0 1 36.23-5.125ZM28.722 17.29h.008a2.361 2.361 0 0 1 .776.493l8.308 8.308a2.36 2.36 0 0 1 0 3.351 2.36 2.36 0 0 1-3.351 0l-3.574-3.6-.7-.707v16.488a2.36 2.36 0 0 1-4.72 0V25.139l-.7.707-3.573 3.6a2.371 2.371 0 0 1-3.353-3.354l8.308-8.308a2.36 2.36 0 0 1 .776-.493h.008a2.36 2.36 0 0 1 1.787-.001Z" data-name="cloud-upload 1"/></svg>
